<svg height="512" viewBox="0 0 60 60" width="512" xmlns="http://www.w3.org/2000/svg"><g id="Page-1" fill="none" fill-rule="evenodd"><g id="020---Brand-Design" fill-rule="nonzero"><path id="Shape" d="m49 3v12h-48v-12c.0032948-1.10320187.89679813-1.9967052 2-2h44c1.1032019.0032948 1.9967052.89679813 2 2z" fill="#c6d8fb"/><path id="Shape" d="m47 1h-3c1.1032019.0032948 1.9967052.89679813 2 2v12h3v-12c-.0032948-1.10320187-.8967981-1.9967052-2-2z" fill="#a4c3fd"/><path id="Shape" d="m49 15v42c-.0032948 1.1032019-.8967981 1.9967052-2 2h-44c-1.10320187-.0032948-1.9967052-.8967981-2-2v-42z" fill="#e8edfc"/><path id="Shape" d="m46 15v42c-.0032948 1.1032019-.8967981 1.9967052-2 2h3c1.1032019-.0032948 1.9967052-.8967981 2-2v-42z" fill="#cad9fc"/><rect id="Rectangle-path" fill="#a4c2f7" height="6" rx="2" width="16" x="5" y="5"/><path id="Shape" d="m19 5h-3c1.1045695 0 2 .8954305 2 2v2c0 1.1045695-.8954305 2-2 2h3c1.1045695 0 2-.8954305 2-2v-2c0-1.1045695-.8954305-2-2-2z" fill="#7facfa"/><rect id="Rectangle-path" fill="#c6d8fb" height="20" rx="2" width="30" x="29" y="19"/><path id="Shape" d="m57 19h-3c1.1045695 0 2 .8954305 2 2v16c0 1.1045695-.8954305 2-2 2h3c1.1045695 0 2-.8954305 2-2v-16c0-1.1045695-.8954305-2-2-2z" fill="#a4c3fd"/><rect id="Rectangle-path" fill="#a4c2f7" height="6" rx="2" width="12" x="33" y="23"/><path id="Shape" d="m43 23h-3c1.1045695 0 2 .8954305 2 2v2c0 1.1045695-.8954305 2-2 2h3c1.1045695 0 2-.8954305 2-2v-2c0-1.1045695-.8954305-2-2-2z" fill="#7facfa"/><path id="Shape" d="m4 3c.0032948-1.10320187.89679813-1.9967052 2-2h-3c-1.10320187.0032948-1.9967052.89679813-2 2v54c.0032948 1.1032019.89679813 1.9967052 2 2h3c-1.10320187-.0032948-1.9967052-.8967981-2-2z" fill="#fff"/><path id="Rectangle-path" d="m0 49h2v8h-2z" fill="#fff"/><g fill="#428dff"><circle id="Oval" cx="1" cy="53" r="1"/><path id="Shape" d="m19 4h-12c-1.65685425 0-3 1.34314575-3 3v2c0 1.6568542 1.34314575 3 3 3h12c1.6568542 0 3-1.3431458 3-3v-2c0-1.65685425-1.3431458-3-3-3zm1 5c0 .55228475-.4477153 1-1 1h-12c-.55228475 0-1-.44771525-1-1v-2c0-.55228475.44771525-1 1-1h12c.5522847 0 1 .44771525 1 1z"/><path id="Shape" d="m45 4h-8c-.5522847 0-1 .44771525-1 1s.4477153 1 1 1h8c.5522847 0 1-.44771525 1-1s-.4477153-1-1-1z"/><path id="Shape" d="m45 8h-5c-.5522847 0-1 .44771525-1 1s.4477153 1 1 1h5c.5522847 0 1-.44771525 1-1s-.4477153-1-1-1z"/><path id="Shape" d="m57 18h-7v-15c0-1.65685425-1.3431458-3-3-3h-44c-1.65685425 0-3 1.34314575-3 3v46c0 .5522847.44771525 1 1 1s1-.4477153 1-1v-33h46v2h-17c-1.6568542 0-3 1.3431458-3 3v16c0 1.6568542 1.3431458 3 3 3h17v17c0 .5522847-.4477153 1-1 1h-44c-.55228475 0-1-.4477153-1-1s-.44771525-1-1-1-1 .4477153-1 1c0 1.6568542 1.34314575 3 3 3h44c1.6568542 0 3-1.3431458 3-3v-17h7c1.6568542 0 3-1.3431458 3-3v-16c0-1.6568542-1.3431458-3-3-3zm-55-4v-11c0-.55228475.44771525-1 1-1h44c.5522847 0 1 .44771525 1 1v11zm56 23c0 .5522847-.4477153 1-1 1h-26c-.5522847 0-1-.4477153-1-1v-16c0-.5522847.4477153-1 1-1h26c.5522847 0 1 .4477153 1 1z"/><path id="Shape" d="m43 22h-8c-1.6568542 0-3 1.3431458-3 3v2c0 1.6568542 1.3431458 3 3 3h8c1.6568542 0 3-1.3431458 3-3v-2c0-1.6568542-1.3431458-3-3-3zm1 5c0 .5522847-.4477153 1-1 1h-8c-.5522847 0-1-.4477153-1-1v-2c0-.5522847.4477153-1 1-1h8c.5522847 0 1 .4477153 1 1z"/><path id="Shape" d="m55 34h-7c-.5522847 0-1 .4477153-1 1s.4477153 1 1 1h7c.5522847 0 1-.4477153 1-1s-.4477153-1-1-1z"/><path id="Shape" d="m55 30h-3c-.5522847 0-1 .4477153-1 1s.4477153 1 1 1h3c.5522847 0 1-.4477153 1-1s-.4477153-1-1-1z"/><path id="Shape" d="m16 19h-10c-.55228475 0-1 .4477153-1 1s.44771525 1 1 1h10c.5522847 0 1-.4477153 1-1s-.4477153-1-1-1z"/><path id="Shape" d="m6 25h3c.55228475 0 1-.4477153 1-1s-.44771525-1-1-1h-3c-.55228475 0-1 .4477153-1 1s.44771525 1 1 1z"/><path id="Shape" d="m19 23h-6c-.5522847 0-1 .4477153-1 1s.4477153 1 1 1h6c.5522847 0 1-.4477153 1-1s-.4477153-1-1-1z"/><path id="Shape" d="m6 32h8c.5522847 0 1-.4477153 1-1s-.4477153-1-1-1h-8c-.55228475 0-1 .4477153-1 1s.44771525 1 1 1z"/><path id="Shape" d="m9 35c0 .5522847.44771525 1 1 1h14c.5522847 0 1-.4477153 1-1s-.4477153-1-1-1h-14c-.55228475 0-1 .4477153-1 1z"/><path id="Shape" d="m4 39c0 .5522847.44771525 1 1 1h19c.5522847 0 1-.4477153 1-1s-.4477153-1-1-1h-19c-.55228475 0-1 .4477153-1 1z"/><path id="Shape" d="m5 44h40c.5522847 0 1-.4477153 1-1s-.4477153-1-1-1h-40c-.55228475 0-1 .4477153-1 1s.44771525 1 1 1z"/><path id="Shape" d="m5 48h13c.5522847 0 1-.4477153 1-1s-.4477153-1-1-1h-13c-.55228475 0-1 .4477153-1 1s.44771525 1 1 1z"/><path id="Shape" d="m35 47c0-.5522847-.4477153-1-1-1h-12c-.5522847 0-1 .4477153-1 1s.4477153 1 1 1h12c.5522847 0 1-.4477153 1-1z"/><path id="Shape" d="m33 52h12c.5522847 0 1-.4477153 1-1s-.4477153-1-1-1h-12c-.5522847 0-1 .4477153-1 1s.4477153 1 1 1z"/></g></g></g></svg>